<svg width="26" height="26" viewBox="0 0 39 35" fill="none" xmlns="http://www.w3.org/2000/svg">
<path d="M26 9V4C26 2.34315 24.6569 1 23 1H4C2.34315 1 1 2.34315 1 4V31C1 32.6569 2.34315 34 4 34H23C24.6569 34 26 32.6569 26 31V24.5" stroke="#EB5757
"/>
<path d="M38.2071 18.2071C38.5976 17.8166 38.5976 17.1834 38.2071 16.7929L31.8431 10.4289C31.4526 10.0384 30.8195 10.0384 30.4289 10.4289C30.0384 10.8195 30.0384 11.4526 30.4289 11.8431L36.0858 17.5L30.4289 23.1569C30.0384 23.5474 30.0384 24.1805 30.4289 24.5711C30.8195 24.9616 31.4526 24.9616 31.8431 24.5711L38.2071 18.2071ZM8.5 18.5H37.5V16.5H8.5V18.5Z" fill="#EB5757"/>
</svg>
