<svg width="14" height="37" viewBox="0 0 14 37" fill="none" xmlns="http://www.w3.org/2000/svg">
<path d="M4.41055 36.918V15.7909H0V12.6327H4.41055V7.86821C4.41055 6.56138 4.54668 5.37253 4.81894 4.30165C5.09119 3.23078 5.50865 2.40493 6.07132 1.82412C6.65213 1.18885 7.36907 0.726017 8.22214 0.43561C9.09336 0.145203 10.0009 0 10.9447 0C12.1063 0 13.0502 0.199655 13.7762 0.598964V3.51211C13.3769 3.38505 12.9231 3.27615 12.4149 3.1854C11.9067 3.09465 11.4166 3.04927 10.9447 3.04927C9.76493 3.04927 8.87556 3.41228 8.27659 4.1383C7.69578 4.84616 7.40537 6.08947 7.40537 7.86821V12.6327H11.6253V15.7909H7.40537V36.918H4.41055Z" fill="#568BF2"/>
</svg>
