<svg width="36" height="36" viewBox="0 0 36 36" fill="none" xmlns="http://www.w3.org/2000/svg">
<circle cx="17.5451" cy="17.5451" r="17.5451" fill="#FBFBFB"/>
<path d="M16.1016 28.8254V16.3457H13.4963V14.4802H16.1016V11.6658C16.1016 10.8939 16.1821 10.1916 16.3429 9.55904C16.5037 8.92648 16.7503 8.43866 17.0827 8.09557C17.4257 7.72032 17.8492 7.44692 18.3531 7.27538C18.8678 7.10384 19.4038 7.01807 19.9614 7.01807C20.6475 7.01807 21.205 7.136 21.6339 7.37187V9.09266C21.398 9.01761 21.13 8.95328 20.8298 8.89968C20.5296 8.84607 20.2401 8.81927 19.9614 8.81927C19.2645 8.81927 18.7391 9.03369 18.3853 9.46255C18.0422 9.88069 17.8707 10.6151 17.8707 11.6658V14.4802H20.3634V16.3457H17.8707V28.8254H16.1016Z" fill="#3B5495"/>
</svg>
