<svg width="110" height="22" viewBox="0 0 110 22" fill="none" xmlns="http://www.w3.org/2000/svg">
<path d="M6.89586 9.38892C6.91939 9.38141 7.00953 9.35913 7.16627 9.32208C7.33082 9.28513 7.54625 9.24102 7.81255 9.18975C8.07896 9.13067 8.38443 9.0721 8.72895 9.01402C9.08139 8.94824 9.45711 8.89447 9.85612 8.85272C9.91956 7.56437 10.1175 6.44963 10.4499 5.50852C10.7902 4.5675 11.2107 3.76425 11.7115 3.09876C11.1979 2.93589 10.6688 2.76892 10.1241 2.59784C9.58715 2.42686 9.05004 2.2715 8.51273 2.13177C7.97542 1.99203 7.44167 1.87969 6.91147 1.79474C6.38918 1.70208 5.88977 1.65269 5.41325 1.64656C4.84298 1.63923 4.35013 1.68759 3.9347 1.79163C3.52718 1.88796 3.18165 2.02415 2.89811 2.20021C2.61467 2.36845 2.38166 2.56469 2.19908 2.78893C2.0243 3.01326 1.88849 3.24591 1.79163 3.48687C1.69488 3.72002 1.62937 3.95357 1.59511 4.18753C1.56095 4.41367 1.54266 4.62048 1.54025 4.80797C1.53804 4.97983 1.54409 5.11663 1.55841 5.21839C1.57273 5.32014 1.57979 5.37883 1.57959 5.39446L1.12139 5.48232C1.11418 5.43535 1.10712 5.37666 1.10021 5.30626C1.0932 5.24366 1.08625 5.17716 1.07934 5.10675C1.08034 5.02863 1.08145 4.9427 1.08265 4.84896C1.08537 4.63804 1.10405 4.39998 1.13872 4.13478C1.18119 3.86968 1.25496 3.60107 1.36003 3.32896C1.47291 3.05696 1.6248 2.78935 1.8157 2.52616C2.01442 2.26307 2.27131 2.03198 2.5864 1.83289C2.9093 1.6339 3.29809 1.47482 3.75279 1.35566C4.21529 1.2366 4.76293 1.18113 5.39569 1.18927C5.98158 1.1968 6.56296 1.25116 7.13983 1.35233C7.72461 1.4458 8.29342 1.5664 8.84626 1.71415C9.407 1.85418 9.95578 2.01359 10.4926 2.19238C11.0295 2.36336 11.5508 2.53024 12.0566 2.693C12.4217 2.25235 12.8132 1.87844 13.2313 1.57129C13.6571 1.26424 14.0822 1.01969 14.5064 0.837629C14.9308 0.647756 15.3427 0.512417 15.7422 0.431609C16.1496 0.34309 16.5213 0.30099 16.8572 0.305309C17.1228 0.308725 17.3685 0.343136 17.5942 0.408544C17.82 0.473952 18.0141 0.570205 18.1765 0.697304C18.3468 0.824504 18.4776 0.978543 18.569 1.15942C18.6684 1.33259 18.7166 1.52854 18.7138 1.74727C18.7109 1.97381 18.6375 2.21508 18.4936 2.47106C18.3575 2.72714 18.1513 2.96279 17.8751 3.17801C17.5989 3.38541 17.2529 3.55676 16.8371 3.69205C16.4213 3.82734 15.9321 3.89137 15.3697 3.88414C14.9869 3.87921 14.5657 3.82692 14.106 3.72725C13.6463 3.62758 13.1595 3.50803 12.6456 3.3686C12.246 4.06664 11.9309 4.87125 11.7004 5.78243C11.4779 6.68589 11.3283 7.68405 11.2517 8.77691C11.3377 8.77801 11.4237 8.77521 11.5097 8.7685C11.6035 8.7619 11.6934 8.75915 11.7793 8.76025C12.3105 8.76708 12.7712 8.79254 13.1613 8.83662C13.5593 8.87299 13.9103 8.92048 14.2142 8.97908C14.5183 9.02986 14.7831 9.09187 15.0088 9.16509C15.2423 9.2306 15.4603 9.2959 15.6626 9.36101L15.5873 9.74679C15.1429 9.67076 14.6475 9.61361 14.1011 9.57533C13.5625 9.53715 13.008 9.51439 12.4378 9.50706C12.2347 9.50445 12.0276 9.50569 11.8166 9.51079C11.6135 9.50818 11.4142 9.51343 11.2187 9.52654L11.2129 9.97182C11.2073 10.4093 11.2101 10.8039 11.2212 11.1556C11.2324 11.4995 11.2438 11.8239 11.2555 12.1288C11.2672 12.4337 11.279 12.7346 11.2908 13.0317C11.3027 13.3209 11.3065 13.6296 11.3023 13.9577C11.2921 14.7545 11.1539 15.4754 10.8878 16.1205C10.6295 16.7578 10.267 17.304 9.8002 17.759C9.34118 18.2141 8.78978 18.5625 8.146 18.8042C7.51002 19.0461 6.80535 19.162 6.03198 19.1521C5.21173 19.1415 4.47882 19.0227 3.83325 18.7956C3.18758 18.5764 2.64096 18.249 2.1934 17.8135C1.75365 17.3782 1.41681 16.8386 1.18288 16.1949C0.956758 15.5514 0.849173 14.8038 0.860122 13.9523C0.867957 13.343 0.958218 12.7035 1.13091 12.0338L1.58639 12.1568C1.54532 12.3126 1.50801 12.4801 1.47445 12.6593C1.44901 12.8153 1.42331 12.9907 1.39737 13.1857C1.37923 13.3808 1.36886 13.5799 1.36625 13.783C1.34626 15.3376 1.72143 16.5417 2.49177 17.3955C3.27002 18.2415 4.45205 18.6747 6.03785 18.6951C6.69405 18.7035 7.27719 18.6211 7.78727 18.448C8.29735 18.2749 8.72641 18.0225 9.07445 17.6911C9.4303 17.3597 9.70118 16.953 9.88708 16.4709C10.0808 15.989 10.1816 15.4434 10.1894 14.8341C10.1941 14.4669 10.1756 14.0838 10.1339 13.6848C10.1 13.2781 10.0586 12.8557 10.0095 12.4175C9.96837 11.9716 9.92743 11.5101 9.88668 11.033C9.85375 10.556 9.84055 10.0636 9.84708 9.55579C9.43275 9.5739 9.04962 9.59632 8.69768 9.62304C8.35366 9.64206 8.04875 9.65767 7.78294 9.66988C7.47007 9.69711 7.18854 9.71693 6.93836 9.72934L6.89586 9.38892ZM15.3759 3.40371C15.8055 3.40923 16.1967 3.36738 16.5494 3.27816C16.9023 3.18113 17.2047 3.0561 17.4567 2.90308C17.7088 2.74224 17.9025 2.56503 18.0378 2.37144C18.181 2.17014 18.2539 1.96794 18.2565 1.76483C18.2603 1.47579 18.1305 1.23973 17.8672 1.05664C17.604 0.865738 17.2732 0.767727 16.8748 0.762604C16.0077 0.751455 15.2435 0.936957 14.5823 1.31911C13.9212 1.69346 13.3556 2.2331 12.8855 2.93806C13.3447 3.07678 13.7808 3.18787 14.1939 3.27131C14.6069 3.35475 15.0009 3.39889 15.3759 3.40371ZM24.6206 16.8713C25.0581 16.877 25.4781 16.7222 25.8806 16.407C26.291 16.092 26.6133 15.6312 26.8477 15.0248L26.754 15.0236C26.2696 15.0174 25.8215 14.9296 25.4096 14.7602C25.0055 14.5909 24.6529 14.3598 24.352 14.0669C24.059 13.7662 23.8291 13.4117 23.6625 13.0032C23.496 12.587 23.4158 12.1328 23.4222 11.6407C23.4257 11.3672 23.4644 11.0904 23.5383 10.81C23.6201 10.5298 23.7405 10.2814 23.8995 10.0646C24.0587 9.84009 24.2641 9.65913 24.5159 9.52173C24.7677 9.38433 25.0655 9.31784 25.4092 9.32226C25.6904 9.32588 25.967 9.38803 26.2389 9.50872C26.5109 9.62161 26.7545 9.81616 26.9697 10.0924C27.1849 10.3686 27.3559 10.7419 27.4827 11.2124C27.6174 11.6751 27.6802 12.2619 27.671 12.9727C27.6676 13.2383 27.6525 13.5038 27.6256 13.7691C27.5989 14.0266 27.5526 14.2799 27.4869 14.5291C27.7923 14.4783 28.0631 14.3841 28.2992 14.2465C28.5432 14.109 28.7563 13.9438 28.9385 13.7508C29.1286 13.5501 29.2955 13.3257 29.4394 13.0775C29.5833 12.8215 29.7157 12.5498 29.8366 12.2622L30.2921 12.3853C30.1223 12.8285 29.926 13.2049 29.7033 13.5145C29.4884 13.8243 29.2545 14.083 29.0018 14.2907C28.757 14.4985 28.4971 14.6593 28.2221 14.7729C27.9551 14.8789 27.6769 14.9495 27.3873 14.9849C27.273 15.3663 27.1239 15.7237 26.9399 16.0573C26.7559 16.3909 26.5334 16.6811 26.2724 16.9277C26.0114 17.1744 25.7081 17.3697 25.3624 17.5137C25.0247 17.65 24.645 17.7155 24.2231 17.71C23.8716 17.7055 23.517 17.6306 23.1595 17.4854C22.8099 17.3325 22.4925 17.1057 22.2072 16.8051C21.9299 16.4969 21.7043 16.115 21.5305 15.6596C21.3646 15.1965 21.2857 14.6486 21.2938 14.0158C21.2991 13.6018 21.3512 13.1962 21.4501 12.799C21.5568 12.4019 21.6983 12.0287 21.8747 11.6794C22.059 11.3223 22.2742 10.993 22.5202 10.6915C22.7664 10.3821 23.0316 10.116 23.3157 9.89305L23.4877 10.1883C23.3059 10.35 23.1315 10.5509 22.9643 10.7909C22.7972 11.031 22.6453 11.2986 22.5086 11.5937C22.3721 11.8811 22.2627 12.1883 22.1804 12.5154C22.0981 12.8347 22.0549 13.1544 22.0508 13.4747C22.0427 14.1075 22.114 14.6397 22.2647 15.0714C22.4232 15.5031 22.6258 15.8534 22.8723 16.1222C23.119 16.3832 23.3978 16.5743 23.7088 16.6955C24.0198 16.8089 24.3238 16.8675 24.6206 16.8713ZM25.3799 9.77895C25.1689 9.77624 24.973 9.8206 24.7922 9.91203C24.6114 9.99565 24.4536 10.1147 24.3188 10.2693C24.184 10.4238 24.0761 10.6099 23.9952 10.8276C23.9142 11.0454 23.8721 11.287 23.8687 11.5526C23.8627 12.0135 23.9355 12.4286 24.087 12.7977C24.2386 13.1669 24.4455 13.4821 24.7077 13.7433C24.9778 14.0046 25.2917 14.2079 25.6492 14.3531C26.0068 14.4905 26.3927 14.5619 26.8067 14.5672L27.0293 14.5701C27.0949 14.3287 27.1412 14.0754 27.168 13.8101C27.1949 13.5448 27.2103 13.2559 27.2143 12.9434C27.2064 12.3417 27.1504 11.8409 27.0461 11.4411C26.9498 11.0336 26.8212 10.7077 26.6602 10.4634C26.4993 10.2192 26.3062 10.0448 26.081 9.94032C25.8636 9.83596 25.6298 9.78217 25.3799 9.77895ZM38.8067 3.34168C38.8004 3.83382 38.7351 4.35647 38.6108 4.9096C38.4943 5.46284 38.3386 6.02338 38.1438 6.59123C37.9568 7.15919 37.7385 7.73065 37.4889 8.30561C37.2471 8.88068 37.0017 9.43225 36.7527 9.96035C36.5037 10.4884 36.259 10.9892 36.0185 11.4627C35.778 11.9363 35.5655 12.3593 35.381 12.732C35.404 13.373 35.4513 13.9518 35.5228 14.4683C35.5942 14.9849 35.6862 15.4276 35.7987 15.7962C35.9112 16.1571 36.0483 16.4362 36.2098 16.6336C36.3714 16.831 36.5576 16.9311 36.7685 16.9338C37.0029 16.9368 37.2347 16.8304 37.4641 16.6146C37.7012 16.3989 37.9396 16.0933 38.179 15.6979C38.4185 15.3025 38.663 14.8252 38.9124 14.2658C39.1618 13.7065 39.4159 13.0808 39.6748 12.3887L40.1303 12.5118C39.9359 13.0484 39.7177 13.616 39.4756 14.2145C39.2336 14.8051 38.9648 15.3486 38.6694 15.8449C38.3739 16.3411 38.0522 16.7511 37.7043 17.0747C37.3641 17.3985 36.9988 17.5579 36.6082 17.5529C36.2176 17.5478 35.8911 17.4225 35.6286 17.177C35.3661 16.9314 35.1514 16.6122 34.9846 16.2194C34.8178 15.8188 34.6908 15.3679 34.6035 14.8667C34.5163 14.3577 34.4526 13.8413 34.4125 13.3173C34.3723 12.7933 34.3515 12.2851 34.35 11.7929C34.3486 11.2928 34.3504 10.8514 34.3553 10.4686C34.3645 9.75775 34.4009 9.05113 34.4646 8.34876C34.5362 7.6465 34.6346 6.97584 34.7601 6.33677C34.8933 5.69781 35.0493 5.10601 35.2282 4.56139C35.4072 4.00896 35.6126 3.535 35.8442 3.13951C36.0838 2.73631 36.3418 2.42319 36.6181 2.20016C36.9022 1.97723 37.2083 1.86788 37.5364 1.8721C37.7708 1.87511 37.9695 1.91673 38.1325 1.99696C38.2956 2.07719 38.427 2.18436 38.5269 2.31846C38.6267 2.45257 38.6989 2.60976 38.7435 2.79004C38.7881 2.9625 38.8092 3.14638 38.8067 3.34168ZM35.3452 10.0477C35.3414 10.3446 35.3376 10.6375 35.3339 10.9266C35.3303 11.2078 35.3346 11.4813 35.3468 11.7471C35.5471 11.359 35.7596 10.9359 35.9843 10.4779C36.209 10.012 36.43 9.53429 36.6473 9.04485C36.8724 8.54771 37.0859 8.0465 37.2877 7.54124C37.4896 7.03599 37.6678 6.54214 37.8225 6.05972C37.9772 5.56948 38.1004 5.10618 38.1919 4.66982C38.2914 4.22575 38.3434 3.82404 38.3481 3.4647C38.3496 3.34752 38.3395 3.22238 38.3177 3.08928C38.3038 2.95627 38.2702 2.83474 38.2169 2.72467C38.1716 2.60689 38.1025 2.51224 38.0096 2.44073C37.9169 2.36141 37.7963 2.32079 37.6479 2.31888C37.351 2.31506 37.0634 2.50669 36.785 2.89377C36.5144 3.27314 36.2732 3.80524 36.0613 4.49007C35.8571 5.175 35.6903 5.99323 35.5609 6.94477C35.4316 7.8885 35.3597 8.92282 35.3452 10.0477ZM48.6872 3.83203C48.68 4.38668 48.5706 4.9986 48.3588 5.66781C48.155 6.32931 47.8881 7.03687 47.558 7.7905C47.2358 8.54423 46.8702 9.32866 46.4613 10.1438C46.0602 10.959 45.6627 11.7938 45.2688 12.6482C45.2145 13.2257 45.1567 13.7718 45.0954 14.2867C45.0419 14.8017 44.9889 15.2776 44.9364 15.7145C45.0571 15.4426 45.194 15.1279 45.347 14.7705C45.508 14.4053 45.6847 14.0326 45.8771 13.6522C46.0695 13.2718 46.2774 12.8995 46.5009 12.5351C46.7322 12.1631 46.9748 11.8341 47.2285 11.5483C47.4901 11.2548 47.7626 11.02 48.0462 10.8439C48.3375 10.6679 48.6433 10.582 48.9636 10.5861C49.1824 10.589 49.3888 10.6385 49.5829 10.7347C49.7848 10.8311 49.9589 10.9623 50.1052 11.1282C50.2516 11.2864 50.3664 11.4714 50.4496 11.6835C50.5329 11.8955 50.573 12.1187 50.5699 12.353C50.5649 12.7436 50.4706 13.0901 50.287 13.3925C50.1035 13.687 49.8698 13.9418 49.5857 14.1569C49.3095 14.3722 48.9986 14.5518 48.6529 14.6958C48.3073 14.8398 47.9699 14.9526 47.6407 15.0343C47.67 15.1832 47.7342 15.3598 47.8331 15.5642C47.9321 15.7686 48.0624 15.9656 48.224 16.1552C48.3935 16.3371 48.5946 16.496 48.8273 16.6318C49.06 16.7598 49.3209 16.8256 49.61 16.8293C50.2193 16.8372 50.798 16.4891 51.3462 15.7852C51.8945 15.0734 52.4435 13.9984 52.9933 12.56L53.4488 12.683C53.1819 13.3828 52.908 14.0278 52.6269 14.618C52.346 15.2003 52.0426 15.7043 51.7168 16.1298C51.3988 16.5555 51.0547 16.887 50.6844 17.1244C50.3141 17.3619 49.9103 17.4778 49.4728 17.4722C49.3009 17.47 49.102 17.444 48.8761 17.3942C48.658 17.3445 48.4288 17.2439 48.1885 17.0923C47.9562 16.9331 47.7246 16.7113 47.4939 16.4271C47.2631 16.1429 47.0532 15.7612 46.864 15.2822C46.8412 15.235 46.8185 15.1761 46.796 15.1055C46.7812 15.035 46.7741 14.9802 46.7746 14.9412C46.7765 14.7928 46.813 14.6916 46.884 14.6379C46.9551 14.5763 47.0416 14.5344 47.1435 14.5123C47.2531 14.4903 47.3705 14.4761 47.4956 14.4699C47.6208 14.4559 47.7423 14.4262 47.8601 14.3809C48.441 14.1618 48.871 13.843 49.1498 13.4247C49.4366 12.9987 49.5834 12.5162 49.5903 11.9771C49.5947 11.6334 49.5236 11.3942 49.3769 11.2595C49.2303 11.117 49.0593 11.0444 48.864 11.0419C48.7078 11.0399 48.551 11.0809 48.3936 11.1648C48.2364 11.2409 48.0945 11.3368 47.968 11.4523C47.6436 11.7685 47.338 12.1396 47.0513 12.5656C46.7725 12.984 46.5129 13.4221 46.2726 13.8799C46.0402 14.3301 45.8275 14.7766 45.6342 15.2195C45.4489 15.6547 45.2876 16.0471 45.1503 16.397C45.0209 16.7391 44.9196 17.0191 44.8465 17.2369C44.7812 17.4548 44.7486 17.5638 44.7486 17.5638L44.2925 17.4876C44.2858 17.4016 44.2832 17.2961 44.2848 17.1711C44.2784 17.0616 44.2762 16.9327 44.2781 16.7842C44.28 16.6358 44.2822 16.46 44.2849 16.2569C44.2906 15.8117 44.3054 15.2649 44.3294 14.6167C44.3534 13.9607 44.3902 13.2307 44.4396 12.4266C44.4969 11.6147 44.5707 10.7367 44.661 9.79248C44.7591 8.84835 44.8811 7.86156 45.0272 6.8321C45.1474 5.98983 45.2972 5.28076 45.4765 4.70489C45.6636 4.12912 45.8687 3.66688 46.092 3.31816C46.3153 2.96162 46.5491 2.7068 46.7933 2.55367C47.0375 2.40055 47.2845 2.3256 47.5345 2.32881C47.7376 2.33142 47.9129 2.37274 48.0603 2.45277C48.2077 2.53279 48.3274 2.64372 48.4193 2.78554C48.5114 2.91954 48.5797 3.07668 48.6242 3.25696C48.6688 3.43723 48.6898 3.62893 48.6872 3.83203ZM47.6455 2.81075C47.4502 2.80823 47.2691 2.9192 47.1021 3.14363C46.943 3.36816 46.7944 3.67878 46.6565 4.07548C46.5186 4.47217 46.3876 4.93928 46.2635 5.47679C46.1473 6.00659 46.0383 6.58336 45.9365 7.2071C45.8426 7.82314 45.7523 8.47046 45.6654 9.14909C45.5787 9.81991 45.4997 10.4908 45.4286 11.1618C45.6213 10.758 45.826 10.3348 46.0426 9.89228C46.2593 9.44972 46.4682 8.99924 46.6694 8.54086C46.8785 8.08257 47.0757 7.63194 47.2611 7.18898C47.4544 6.7383 47.6201 6.3068 47.7582 5.89448C47.9042 5.48226 48.0184 5.10089 48.1011 4.75036C48.1915 4.39993 48.2385 4.09191 48.2419 3.82631C48.2431 3.73257 48.2366 3.62701 48.2225 3.50963C48.2162 3.39235 48.1903 3.28263 48.1447 3.18048C48.107 3.07842 48.0495 2.99174 47.9723 2.92042C47.895 2.84911 47.7861 2.81255 47.6455 2.81075ZM60.266 6.21939C60.2604 6.65685 60.3452 7.0525 60.5203 7.40635C60.6956 7.75238 60.9337 8.07187 61.2346 8.36483C61.5357 8.64997 61.8877 8.91624 62.2908 9.16363C62.7018 9.40331 63.1363 9.63939 63.5943 9.87186C64.0524 10.0965 64.5222 10.3213 65.0037 10.5463C65.4932 10.7635 65.9668 10.9962 66.4246 11.2443C66.8825 11.4846 67.3127 11.7479 67.7153 12.0344C68.1258 12.3131 68.4812 12.6263 68.7814 12.974C69.0818 13.3138 69.3191 13.6958 69.4933 14.1199C69.6677 14.5363 69.7515 15.0061 69.7448 15.5295C69.7325 16.4826 69.5422 17.3083 69.1738 18.0068C68.8055 18.6974 68.3177 19.2654 67.7104 19.7107C67.1029 20.1639 66.3994 20.4947 65.5998 20.7032C64.8 20.9195 63.9666 21.0221 63.0995 21.0109C62.3339 21.0011 61.6127 20.8903 60.9356 20.6784C60.2585 20.4744 59.6645 20.1894 59.1535 19.8234C58.6425 19.4652 58.2378 19.0342 57.9396 18.5303C57.6491 18.0344 57.5076 17.4934 57.5151 16.9076C57.5217 16.392 57.6055 15.9555 57.7663 15.5982C57.9351 15.2331 58.1147 14.9346 58.3052 14.7027C58.5035 14.4708 58.6893 14.3013 58.8626 14.1942C59.0359 14.087 59.1343 14.0297 59.1578 14.0222L59.4085 14.5762C59.3928 14.5838 59.3179 14.6337 59.1839 14.7257C59.05 14.8099 58.9037 14.9448 58.7451 15.1303C58.5942 15.3158 58.4505 15.5562 58.3139 15.8513C58.1852 16.1388 58.1181 16.4934 58.1127 16.9152C58.1073 17.3371 58.1805 17.717 58.3324 18.0549C58.4923 18.3851 58.7034 18.6769 58.9658 18.9303C59.236 19.1838 59.5418 19.4026 59.8832 19.5867C60.2324 19.7709 60.5938 19.92 60.9674 20.0342C61.3408 20.1562 61.7147 20.2431 62.0891 20.2948C62.4634 20.3543 62.8106 20.3861 63.1309 20.3902C63.959 20.4009 64.7103 20.305 65.3848 20.1028C66.0592 19.9083 66.6332 19.6305 67.1066 19.2694C67.5878 18.9161 67.9603 18.5029 68.2242 18.0297C68.4882 17.5487 68.6238 17.0309 68.6309 16.4762C68.639 15.8513 68.5131 15.3105 68.2533 14.854C67.9935 14.3975 67.6471 13.9946 67.2141 13.6453C66.7811 13.2881 66.2852 12.9692 65.7263 12.6886C65.1752 12.4002 64.6085 12.1195 64.026 11.8463C63.4514 11.5733 62.8847 11.2886 62.3259 10.9924C61.7751 10.6884 61.2834 10.3422 60.8509 9.95378C60.4183 9.56537 60.0725 9.11948 59.8133 8.61611C59.5542 8.10492 59.4292 7.5017 59.4381 6.80645C59.448 6.03307 59.586 5.32776 59.852 4.6905C60.1259 4.05334 60.4923 3.50723 60.9513 3.05215C61.4183 2.58937 61.9619 2.23695 62.5822 1.99491C63.2027 1.74506 63.8723 1.62475 64.591 1.63399C65.3175 1.64333 65.953 1.73745 66.4976 1.91634C67.0424 2.08742 67.4963 2.32765 67.8596 2.63703C68.2307 2.93871 68.5034 3.30162 68.6777 3.72577C68.8597 4.15002 68.9475 4.61603 68.941 5.1238C68.9357 5.53783 68.8797 5.94339 68.773 6.34049C68.6742 6.72988 68.5642 7.08006 68.443 7.39102C68.3218 7.70199 68.2092 7.95447 68.1051 8.14846C68.0011 8.34245 67.945 8.45111 67.9369 8.47445L67.4133 8.17472C67.4134 8.16691 67.4576 8.07372 67.5459 7.89515C67.6419 7.71669 67.7465 7.48364 67.8596 7.19601C67.9726 6.90837 68.0745 6.58544 68.165 6.2272C68.2635 5.86124 68.3151 5.49078 68.3199 5.11582C68.3254 4.69397 68.2522 4.31019 68.1003 3.96446C67.9564 3.61102 67.7298 3.3112 67.4204 3.06502C67.1111 2.81883 66.719 2.62628 66.2442 2.48735C65.7694 2.34842 65.2078 2.27478 64.5594 2.26645C63.9579 2.25871 63.398 2.35309 62.8798 2.54956C62.3617 2.73823 61.909 3.00978 61.5216 3.3642C61.142 3.71872 60.8397 4.14065 60.6146 4.62999C60.3896 5.11151 60.2735 5.64131 60.266 6.21939ZM79.6286 17.5786C80.0661 17.5843 80.4861 17.4295 80.8886 17.1143C81.2989 16.7993 81.6213 16.3385 81.8557 15.7321L81.7619 15.7309C81.2776 15.7247 80.8295 15.6369 80.4175 15.4675C80.0134 15.2983 79.6609 15.0671 79.36 14.7742C79.0669 14.4735 78.8371 14.119 78.6704 13.7105C78.5039 13.2943 78.4238 12.8401 78.4301 12.348C78.4336 12.0745 78.4724 11.7977 78.5463 11.5174C78.628 11.2371 78.7484 10.9887 78.9075 10.7719C79.0666 10.5474 79.2721 10.3664 79.5239 10.229C79.7757 10.0916 80.0734 10.0252 80.4171 10.0296C80.6984 10.0332 80.9749 10.0953 81.2468 10.216C81.5188 10.3289 81.7625 10.5235 81.9777 10.7997C82.1929 11.0759 82.3639 11.4492 82.4907 11.9197C82.6253 12.3824 82.6881 12.9692 82.679 13.68C82.6756 13.9457 82.6604 14.2111 82.6336 14.4764C82.6068 14.7339 82.5606 14.9872 82.4949 15.2364C82.8003 15.1856 83.071 15.0915 83.3072 14.9539C83.5512 14.8164 83.7642 14.6511 83.9464 14.4581C84.1365 14.2574 84.3035 14.033 84.4473 13.7848C84.5912 13.5288 84.7237 13.2571 84.8445 12.9696L85.3 13.0926C85.1303 13.5358 84.934 13.9122 84.7112 14.2218C84.4963 14.5316 84.2625 14.7903 84.0098 14.998C83.7649 15.2059 83.505 15.3666 83.2301 15.4803C82.9631 15.5862 82.6848 15.6568 82.3953 15.6922C82.281 16.0736 82.1318 16.4311 81.9479 16.7647C81.7639 17.0983 81.5414 17.3884 81.2804 17.635C81.0194 17.8817 80.716 18.077 80.3704 18.2211C80.0327 18.3573 79.6529 18.4228 79.2311 18.4174C78.8795 18.4128 78.525 18.338 78.1675 18.1927C77.8178 18.0398 77.5004 17.813 77.2152 17.5125C76.9379 17.2042 76.7123 16.8223 76.5385 16.3669C76.3725 15.9038 76.2936 15.3559 76.3018 14.7231C76.3071 14.3091 76.3592 13.9035 76.458 13.5063C76.5647 13.1092 76.7063 12.736 76.8826 12.3867C77.0669 12.0296 77.2821 11.7003 77.5282 11.3988C77.7744 11.0894 78.0395 10.8233 78.3237 10.6004L78.4957 10.8956C78.3139 11.0573 78.1394 11.2582 77.9723 11.4983C77.8051 11.7383 77.6532 12.0059 77.5166 12.3011C77.3801 12.5884 77.2707 12.8956 77.1883 13.2227C77.1061 13.542 77.0629 13.8618 77.0588 14.182C77.0506 14.8148 77.1219 15.347 77.2726 15.7787C77.4312 16.2104 77.6337 16.5607 77.8803 16.8295C78.1269 17.0906 78.4058 17.2817 78.7167 17.4028C79.0278 17.5162 79.3318 17.5748 79.6286 17.5786ZM80.3878 10.4863C80.1769 10.4836 79.981 10.5279 79.8001 10.6193C79.6193 10.703 79.4616 10.822 79.3267 10.9766C79.1919 11.1311 79.0841 11.3172 79.0031 11.535C78.9222 11.7527 78.88 11.9943 78.8766 12.2599C78.8707 12.7208 78.9435 13.1359 79.095 13.505C79.2465 13.8742 79.4534 14.1894 79.7157 14.4506C79.9858 14.7119 80.2996 14.9152 80.6572 15.0604C81.0148 15.1978 81.4006 15.2692 81.8147 15.2745L82.0373 15.2774C82.1029 15.036 82.1491 14.7827 82.176 14.5174C82.2028 14.2521 82.2183 13.9632 82.2223 13.6507C82.2144 13.049 82.1583 12.5483 82.0541 12.1484C81.9578 11.7409 81.8291 11.415 81.6682 11.1708C81.5073 10.9265 81.3142 10.7521 81.0889 10.6476C80.8715 10.5433 80.6378 10.4895 80.3878 10.4863ZM94.0932 16.1122C93.8454 16.5465 93.6064 16.9067 93.3761 17.1929C93.1458 17.479 92.9163 17.7065 92.6876 17.8755C92.4666 18.0445 92.2425 18.1628 92.015 18.2301C91.7876 18.2975 91.5527 18.3297 91.3106 18.3266C91.1153 18.3241 90.893 18.2899 90.6439 18.2242C90.3947 18.1585 90.1581 18.0266 89.9341 17.8284C89.7179 17.6224 89.5342 17.331 89.3828 16.954C89.2392 16.5771 89.1714 16.0723 89.1796 15.4396C89.1877 14.8068 89.2695 14.214 89.4251 13.6613C89.5808 13.1008 89.7511 12.6107 89.9362 12.1912C90.1534 11.7096 90.4013 11.2635 90.6801 10.853L91.1118 10.9992C91.1039 11.0069 91.0756 11.0769 91.0271 11.2091C90.9863 11.3414 90.9293 11.5203 90.8561 11.746C90.7907 11.9717 90.717 12.2325 90.6351 12.5283C90.561 12.8243 90.4866 13.1398 90.412 13.4748C90.3452 13.8021 90.2862 14.1373 90.2349 14.4804C90.1915 14.8236 90.1677 15.1554 90.1635 15.4756C90.1541 16.21 90.2755 16.7936 90.5278 17.2266C90.788 17.6518 91.129 17.8672 91.5508 17.8726C92.0195 17.8786 92.4761 17.6149 92.9205 17.0815C93.365 16.5403 93.7927 15.7841 94.2037 14.8127C94.2798 14.3605 94.379 13.9399 94.5012 13.5508C94.6312 13.1618 94.7567 12.8157 94.8778 12.5126C95.0067 12.2095 95.1233 11.9571 95.2274 11.7553C95.3316 11.5535 95.4076 11.4177 95.4553 11.348L95.8643 11.447C95.7317 12.0313 95.6156 12.5572 95.5158 13.0247C95.424 13.4845 95.3483 13.9016 95.2888 14.2758C95.2293 14.6501 95.182 14.9854 95.1469 15.2819C95.1198 15.5706 95.1047 15.8322 95.1017 16.0665C95.0956 16.5352 95.165 16.9112 95.3098 17.1943C95.4547 17.4774 95.6833 17.621 95.9958 17.625C96.2067 17.6277 96.4108 17.5522 96.6081 17.3985C96.8054 17.2448 97.0118 16.9896 97.2274 16.633C97.4429 16.2763 97.6715 15.8144 97.9132 15.2471C98.1549 14.6799 98.4296 13.9802 98.7372 13.1482L99.1926 13.2712C99.0556 13.5976 98.9183 13.9475 98.7807 14.3207C98.643 14.694 98.4937 15.0671 98.3326 15.4401C98.1794 15.8131 98.0146 16.1704 97.8384 16.5119C97.6699 16.8535 97.4785 17.1558 97.2642 17.4187C97.0576 17.6817 96.8323 17.8897 96.5881 18.0428C96.3439 18.196 96.0734 18.2706 95.7766 18.2668C95.4953 18.2632 95.25 18.2053 95.0405 18.0933C94.8309 17.9812 94.6532 17.8304 94.5072 17.641C94.369 17.4518 94.2625 17.2277 94.1877 16.9689C94.1208 16.7024 94.0893 16.4168 94.0932 16.1122ZM107.707 4.22762C107.701 4.71977 107.636 5.24241 107.511 5.79555C107.395 6.34878 107.239 6.90933 107.044 7.47718C106.857 8.04514 106.639 8.6166 106.389 9.19156C106.148 9.76662 105.902 10.3182 105.653 10.8463C105.404 11.3744 105.16 11.8752 104.919 12.3487C104.679 12.8222 104.466 13.2453 104.282 13.6179C104.305 14.2589 104.352 14.8377 104.423 15.3543C104.495 15.8709 104.587 16.3135 104.699 16.6822C104.812 17.043 104.949 17.3221 105.11 17.5196C105.272 17.717 105.458 17.817 105.669 17.8197C105.903 17.8227 106.135 17.7163 106.365 17.5005C106.602 17.2848 106.84 16.9792 107.08 16.5839C107.319 16.1885 107.564 15.7111 107.813 15.1518C108.062 14.5924 108.316 13.9667 108.575 13.2747L109.031 13.3977C108.836 13.9344 108.618 14.5019 108.376 15.1004C108.134 15.6911 107.865 16.2346 107.57 16.7308C107.274 17.227 106.953 17.637 106.605 17.9607C106.265 18.2845 105.899 18.4438 105.509 18.4388C105.118 18.4338 104.792 18.3085 104.529 18.0629C104.267 17.8173 104.052 17.4981 103.885 17.1053C103.718 16.7047 103.591 16.2538 103.504 15.7527C103.417 15.2437 103.353 14.7272 103.313 14.2032C103.273 13.6792 103.252 13.1711 103.251 12.6788C103.249 12.1788 103.251 11.7374 103.256 11.3546C103.265 10.6437 103.301 9.93707 103.365 9.23471C103.437 8.53245 103.535 7.86178 103.661 7.22272C103.794 6.58375 103.95 5.99196 104.129 5.44734C104.308 4.89491 104.513 4.42095 104.745 4.02546C104.984 3.62225 105.242 3.30914 105.519 3.08611C105.803 2.86318 106.109 2.75383 106.437 2.75805C106.671 2.76106 106.87 2.80268 107.033 2.88291C107.196 2.96314 107.328 3.0703 107.427 3.20441C107.527 3.33852 107.599 3.49571 107.644 3.67598C107.689 3.84845 107.71 4.03233 107.707 4.22762ZM104.246 10.9337C104.242 11.2305 104.238 11.5235 104.234 11.8125C104.231 12.0937 104.235 12.3672 104.247 12.6331C104.448 12.245 104.66 11.8219 104.885 11.3638C105.11 10.8979 105.331 10.4202 105.548 9.9308C105.773 9.43365 105.986 8.93245 106.188 8.42719C106.39 7.92193 106.568 7.42809 106.723 6.94566C106.878 6.45542 107.001 5.99213 107.092 5.55577C107.192 5.1117 107.244 4.70999 107.249 4.35064C107.25 4.23347 107.24 4.10833 107.218 3.97522C107.204 3.84222 107.171 3.72068 107.117 3.61062C107.072 3.49283 107.003 3.39819 106.91 3.32668C106.817 3.24735 106.697 3.20674 106.548 3.20483C106.252 3.20101 105.964 3.39264 105.686 3.77972C105.415 4.15908 105.174 4.69118 104.962 5.37601C104.758 6.06095 104.591 6.87918 104.461 7.83072C104.332 8.77445 104.26 9.80877 104.246 10.9337Z" fill="#FBFBFB"/>
</svg>
