<svg width="10" height="23" viewBox="0 0 35 110" fill="none" xmlns="http://www.w3.org/2000/svg">
<path fill-rule="evenodd" clip-rule="evenodd" d="M27.8535 6.19448C29.5237 10.0223 30.1636 15.2974 29.2354 19.9008C28.9743 21.1957 28.2764 22.7992 27.3695 24.5527C26.4463 26.3378 25.2389 28.4038 23.8703 30.6566C22.8386 32.3549 21.7183 34.155 20.5482 36.035C19.9007 37.0755 19.2379 38.1405 18.5664 39.2262C19.0624 44.3163 19.6779 49.6138 20.3386 54.9001C20.6284 57.2182 20.9272 59.5371 21.2284 61.836C21.9817 61.6904 22.7236 61.6063 23.4364 61.5898C27.1971 61.5026 30.1165 63.1117 32.0068 65.5927C33.8654 68.0322 34.6835 71.2436 34.4894 74.3938C34.3044 77.3964 33.6396 80.2402 31.978 82.6947C30.4074 85.0148 28.036 86.8554 24.6526 88.1868C25.162 92.6068 25.5188 96.4228 25.6132 99.3101C25.6616 100.789 25.6432 102.073 25.5288 103.091C25.4716 103.6 25.3862 104.083 25.2556 104.51C25.1318 104.915 24.9295 105.398 24.5599 105.788C22.1394 108.342 19.4269 109.728 16.7449 109.676C14.0157 109.623 11.6807 108.087 10.0716 105.562C8.4184 102.968 8.3155 100.055 9.54833 97.9252C10.8287 95.7136 13.4044 94.6297 16.2975 95.608C17.0823 95.8734 17.5033 96.7247 17.238 97.5095C16.9726 98.2943 16.1213 98.7153 15.3365 98.45C13.7491 97.9131 12.6844 98.4959 12.1446 99.4283C11.5572 100.443 11.4543 102.15 12.6015 103.95C13.7926 105.819 15.2854 106.647 16.8035 106.677C18.3573 106.707 20.2945 105.909 22.3363 103.773C22.3467 103.749 22.3647 103.705 22.3868 103.633C22.444 103.446 22.5021 103.16 22.5475 102.756C22.6383 101.949 22.6613 100.83 22.6148 99.4081C22.5282 96.7603 22.2072 93.2326 21.7332 89.0617C18.2322 89.7695 14.0978 89.4996 10.4172 88.0902C5.8638 86.3466 1.8512 82.7862 0.717002 77.0151C-0.165026 72.5271 1.05858 67.1334 3.19746 61.6226C5.35433 56.0654 8.5369 50.1566 11.8377 44.5464C13.0426 42.4983 14.2742 40.4724 15.4837 38.5093C14.9053 32.4084 14.5037 26.5998 14.4104 21.4694C14.3223 16.6198 14.5077 12.3101 15.1021 8.90542C15.3994 7.20217 15.8071 5.67684 16.3613 4.40414C16.9119 3.13955 17.6474 2.03173 18.6537 1.28084C18.7342 1.2208 18.8205 1.16898 18.9113 1.12618C20.8708 0.202776 22.7796 0.474077 24.3666 1.55964C25.8665 2.58567 27.0214 4.28719 27.8535 6.19448ZM18.1172 34.2631C17.7369 29.6802 17.4813 25.3389 17.4099 21.4149C17.3232 16.6408 17.5112 12.5505 18.0574 9.42133C18.3304 7.85766 18.6848 6.58262 19.1118 5.60177C19.5054 4.69791 19.9276 4.11987 20.3336 3.77618C21.205 3.4123 21.9455 3.53825 22.6728 4.03575C23.5267 4.61984 24.389 5.75579 25.1039 7.39419C26.5278 10.6578 27.1013 15.307 26.2946 19.3079C26.1219 20.1641 25.5957 21.4519 24.7047 23.1746C23.8301 24.8658 22.666 26.861 21.3064 29.099C20.3314 30.7038 19.2527 32.4382 18.1172 34.2631ZM15.9823 43.4517C15.4619 44.3149 14.9412 45.1874 14.4233 46.0677C11.1483 51.6341 8.06282 57.3782 5.9942 62.708C3.9076 68.0842 2.94827 72.8116 3.66069 76.4366C4.55139 80.9686 7.66557 83.8242 11.49 85.2886C14.7517 86.5376 18.4187 86.7219 21.3811 86.07C20.8317 81.5391 20.1512 76.4588 19.4309 71.0809C19.1973 69.3371 18.9596 67.562 18.7208 65.7643C17.2093 66.437 15.7791 67.3656 14.6878 68.4646C13.5791 69.581 12.923 70.7689 12.7783 71.9262C12.6397 73.0344 12.9428 74.3208 14.1603 75.7551C14.6964 76.3867 14.619 77.3333 13.9874 77.8694C13.3558 78.4055 12.4092 78.3281 11.8731 77.6965C10.197 75.7218 9.54332 73.618 9.80144 71.5539C10.0534 69.5388 11.1475 67.7721 12.5591 66.3507C14.1091 64.7898 16.1649 63.5198 18.3139 62.6848C17.9928 60.2391 17.6729 57.7613 17.3618 55.2721C16.868 51.3209 16.3974 47.3493 15.9823 43.4517ZM21.6215 64.8164C21.882 66.7811 22.1422 68.7242 22.3977 70.6324C23.0891 75.7959 23.7462 80.7036 24.2839 85.0912C26.8 83.9811 28.4271 82.5885 29.4937 81.0129C30.7477 79.1606 31.329 76.9051 31.4951 74.2093C31.652 71.6611 30.9766 69.1907 29.6205 67.4108C28.296 65.6725 26.2793 64.5247 23.506 64.589C22.9066 64.6029 22.2716 64.681 21.6215 64.8164Z" fill="#F2C94C"/>
</svg>
